# AST/ASF file generated using VICON BodyLanguage
# -----------------------------------------------
:version 1.10
:name VICON
:units
  mass 1.0
  length 0.45
  angle deg
:documentation
   .ast/.asf automatically generated from VICON data using
   VICON BodyBuilder and BodyLanguage model FoxedUp or BRILLIANT.MOD
:root
   order TX TY TZ RX RY RZ
   axis XYZ
   position 0 0 0  
   orientation 0 0 0 
:bonedata
  begin
     id 1 
     name lhipjoint
     direction 0.54267 -0.795011 0.271047 
     length 2.39899 
     axis 0 0 0  XYZ
  end
  begin
     id 2 
     name lfemur
     direction 0.34202 -0.939693 0  
     length 7.49701  
     axis 0 0 20  XYZ
    dof rx ry rz
    limits (-160.0 20.0)
           (-70.0 70.0)
           (-60.0 70.0)
  end
  begin
     id 3 
     name ltibia
     direction 0.34202 -0.939693 0   
     length 8.1668   
     axis 0 0 20   XYZ
    dof rx
    limits (-10.0 170.0)
  end
  begin
     id 4 
     name lfoot
     direction 0.0736283 -0.202292 0.976554   
     length 2.13544   
     axis -90 7.62852e-016 20   XYZ
    dof rx rz
    limits (-45.0 90.0)
           (-70.0 20.0)
  end
  begin
     id 5 
     name ltoes
     direction 1.53557e-011 -4.22024e-011 1   
     length 1.07411   
     axis -90 7.62852e-016 20   XYZ
    dof rx
    limits (-90.0 20.0)
  end
  begin
     id 6 
     name rhipjoint
     direction -0.538061 -0.797813 0.272002   
     length 2.39057  
     axis 0 0 0  XYZ 
  end
  begin
     id 7 
     name rfemur
     direction -0.34202 -0.939693 0   
     length 7.50152   
     axis 0 0 -20   XYZ
    dof rx ry rz
    limits (-160.0 20.0)
           (-70.0 70.0)
           (-70.0 60.0)
  end
  begin
     id 8 
     name rtibia
     direction -0.34202 -0.939693 0   
     length 8.05793   
     axis 0 0 -20   XYZ
    dof rx
    limits (-10.0 170.0)
 end
 begin
     id 9 
     name rfoot
     direction -0.0765195 -0.210236 0.974652   
     length 2.28698  
     axis -90 -7.62852e-016 -20   XYZ
    dof rx rz
    limits (-45.0 90.0)
           (-20.0 70.0)
  end
  begin
     id 10 
     name rtoes
     direction -1.53542e-011 -4.21847e-011 1   
     length 1.14762   
     axis -90 -7.62852e-016 -20   XYZ
    dof rx
    limits (-90.0 20.0)
  end
  begin
     id 11 
     name lowerback
     direction -0.0217239 0.996592 -0.0795765   
     length 2.08176   
     axis 0 0 0   XYZ
    dof rx ry rz
    limits (-20.0 45.0)
           (-30.0 30.0)
           (-30.0 30.0)
  end
  begin
     id 12 
     name upperback
     direction -0.00563773 0.999651 -0.0258155   
     length 2.08898   
     axis 0 0 0   XYZ
    dof rx ry rz
    limits (-20.0 45.0)
           (-30.0 30.0)
           (-30.0 30.0)
  end
  begin
     id 13 
     name thorax
     direction 0.0032706 0.999923 0.0119599   
     length 2.0968   
     axis 0 0 0   XYZ
    dof rx ry rz
    limits (-20.0 45.0)
           (-30.0 30.0)
           (-30.0 30.0)
  end
  begin
     id 14 
     name lowerneck
     direction -0.0285886 0.99568 0.0883427   
     length 1.81272   
     axis 0 0 0   XYZ
    dof rx ry rz
    limits (-20.0 45.0)
           (-30.0 30.0)
           (-30.0 30.0)
  end
  begin
     id 15 
     name upperneck
     direction 0.0807535 0.97985 -0.18268   
     length 1.82518   
     axis 0 0 0   XYZ
    dof rx ry rz
    limits (-20.0 45.0)
           (-30.0 30.0)
           (-30.0 30.0)
  end
  begin
     id 16
     name head
     direction 0.0236605 0.997053 -0.0729767  
     length 1.84443  
     axis 0 0 0   XYZ
    dof rx ry rz
    limits (-20.0 45.0)
           (-30.0 30.0)
           (-30.0 30.0)
  end
  begin
     id 17 
     name lclavicle
     direction 0.918986 0.39378 -0.0200683  
     length 3.27822  
     axis 0 0 0   XYZ
    dof ry rz
    limits (-20.0 10.0)
           (0.0 20.0)
  end
  begin
     id 18 
     name lhumerus
     direction 1 -4.4897e-011 2.09544e-027   
     length 5.5568   
     axis 180 -30 -90   XYZ
    dof rx ry rz
    limits (-60.0 90.0)
           (-90.0 90.0)
           (-90.0 90.0)
  end
  begin
     id 19
     name lradius
     direction 1 -4.48957e-011 -1.27696e-026   
     length 3.63979   
     axis 180 -30 -90   XYZ
    dof rx
    limits (-10.0 170.0)
  end
  begin
     id 20
     name lwrist
     direction 1 -4.49001e-011 -1.49001e-026   
     length 1.8199   
     axis 9.0955e-015 90 90   XYZ
    dof ry
    limits (-180.0 0.0)
 end
  begin
     id 21 
     name lhand
     direction 1 -4.48709e-011 -2.9758e-026   
     length 0.569419   
     axis 1.90115e-014 90 90   XYZ
    dof rx rz
    limits (-90.0 90.0)
           (-45.0 45.0)
  end
  begin
     id 22 
     name lfingers
     direction 1 -4.49175e-011 -5.96505e-026   
     length 0.45908   
     axis 3.80223e-014 90 90   XYZ
    dof rx
    limits (0.0 90.0)
  end
  begin
     id 23
     name lthumb
     direction 0.707107 -6.34864e-011 0.707107   
     length 0.65915   
     axis -90 45 -3.84942e-014   XYZ
    dof rx rz
    limits (-45.0 45.0)
           (-45.0 45.0)
  end
  begin
     id 24 
     name rclavicle
     direction -0.911913 0.396426 -0.106115   
     length 3.46301  
     axis 0 0 0   XYZ 
    dof ry rz
    limits (-10.0 20.0)
           (-20.0 0.0)
  end
  begin
     id 25 
     name rhumerus
     direction -1 -4.48965e-011 7.78516e-028  
     length 5.34339   
     axis 180 30 90   XYZ
    dof rx ry rz
    limits (-90.0 60.0)
           (-90.0 90.0)
           (-90.0 90.0)
  end
  begin
     id 26 
     name rradius
     direction -1 -4.48948e-011 -5.79823e-027   
     length 3.65101   
     axis 180 30 90   XYZ
    dof rx
    limits (-10.0 170.0)
  end
  begin
     id 27 
     name rwrist
     direction -1 -4.48995e-011 -1.48996e-026   
     length 1.8255   
     axis 9.0955e-015 -90 -90   XYZ
    dof ry
    limits (-180.0 0.0)
  end
  begin
     id 28
     name rhand
     direction -1 -4.48957e-011 -2.97937e-026   
     length 0.694249   
     axis 1.90115e-014 -90 -90   XYZ
    dof rx rz
    limits (-90.0 90.0)
           (-45.0 45.0)
  end
  begin
     id 29
     name rfingers
     direction -1 -4.4898e-011 -5.95943e-026   
     length 0.559721   
     axis 3.80223e-014 -90 -90   XYZ
    dof rx
    limits (0.0 90.0)
  end
  begin
     id 30
     name rthumb
     direction -0.707107 -6.34969e-011 0.707107   
     length 0.803651   
     axis -90 -45 3.84942e-014   XYZ
    dof rx rz
    limits (-45.0 45.0)
           (-45.0 45.0)
  end
:hierarchy
  begin
    root lhipjoint rhipjoint lowerback
    lhipjoint lfemur
    lfemur ltibia
    ltibia lfoot
    lfoot ltoes
    rhipjoint rfemur
    rfemur rtibia
    rtibia rfoot
    rfoot rtoes
    lowerback upperback
    upperback thorax
    thorax lowerneck lclavicle rclavicle
    lowerneck upperneck
    upperneck head
    lclavicle lhumerus
    lhumerus lradius
    lradius lwrist
    lwrist lhand lthumb
    lhand lfingers
    rclavicle rhumerus
    rhumerus rradius
    rradius rwrist
    rwrist rhand rthumb
    rhand rfingers
  end

#!OML:ASF H:\Terrain\Walking\May29\JustinRory\rory.ASF
:FULLY-SPECIFIED
:DEGREES
241
root 10.5927 15.3843 -13.129 -28.114 67.1852 -27.9571
lowerback 22.3819 -1.30029 2.11909
upperback 9.30321 -0.537851 3.3527
thorax -2.31937 -0.0531841 2.50527
lowerneck 3.151 -21.4606 -12.6288
upperneck -8.08894 -29.2368 34.9776
head 4.70611 -15.1655 10.2315
rclavicle 6.24184e-014 5.1684e-015
rhumerus -1.3505 -52.305 -26.0643
rradius 22.8569
rwrist -15.1237
rhand -21.7739 14.5834
rfingers 7.12502
rthumb 4.62712 -15.3461
lclavicle 6.24184e-014 5.1684e-015
lhumerus -45.0855 21.8944 25.069
lradius 78.4291
lwrist 22.6198
lhand -47.3077 27.1599
lfingers 7.12502
lthumb -20.0031 56.1503
rfemur -23.6709 11.3491 2.26759
rtibia 47.338
rfoot -20.6749 -3.04588
rtoes -3.47597
lfemur -44.8551 -0.58853 -5.49753
ltibia 90.2571
lfoot -25.969 10.5942
ltoes -1.70108
242
root 10.6281 15.4525 -13.1176 -25.7275 67.8038 -25.03
lowerback 22.7 -1.5167 0.815303
upperback 9.39131 -1.09699 2.89361
thorax -2.34759 -0.352514 2.89401
lowerneck 2.33283 -21.3927 -12.8827
upperneck -6.63701 -29.4919 34.5675
head 5.28608 -15.0827 9.93465
rclavicle -1.05356e-014 1.39149e-014
rhumerus -0.104378 -52.3745 -27.7804
rradius 23.8722
rwrist -18.6873
rhand -21.0779 14.3612
rfingers 7.12502
rthumb 5.29915 -15.5525
lclavicle -1.05356e-014 1.39149e-014
lhumerus -45.1656 21.6388 26.9668
lradius 78.4418
lwrist 21.1796
lhand -46.3759 26.2227
lfingers 7.12502
lthumb -19.1072 55.3042
rfemur -22.9994 10.9072 1.44135
rtibia 46.8687
rfoot -18.98 -7.84571
rtoes -23.5401
lfemur -44.483 -1.14561 -7.94682
ltibia 90.0211
lfoot -26.4749 10.7354
ltoes -1.72926
243
root 10.6248 15.5021 -13.1138 -27.4995 67.2927 -27.7662
lowerback 22.4952 -1.74869 2.01641
upperback 8.99487 -1.15802 3.14164
thorax -2.69473 -0.368823 2.49098
lowerneck 2.09088 -21.5681 -12.9062
upperneck -5.7172 -29.939 34.0481
head 5.59553 -15.1951 9.62183
rclavicle 4.57205e-014 -1.15295e-014
rhumerus 0.0377045 -52.8461 -28.2033
rradius 24.648
rwrist -21.145
rhand -20.0766 13.6712
rfingers 7.12502
rthumb 6.26587 -16.2161
lclavicle 4.57205e-014 -1.15295e-014
lhumerus -44.3241 21.0338 29.4071
lradius 78.079
lwrist 19.5827
lhand -44.8839 24.5804
lfingers 7.12502
lthumb -17.6719 53.7973
rfemur -23.5697 11.0042 2.97253
rtibia 46.2847
rfoot -17.2582 -10.4075
rtoes -29.6697
lfemur -45.8973 -0.61485 -7.37914
ltibia 90.0485
lfoot -25.9406 10.5929
ltoes -5.02435
244
root 10.6659 15.5593 -13.1078 -26.6405 66.9234 -26.9531
lowerback 22.151 -1.59962 1.64626
upperback 8.97086 -1.06482 3.1801
thorax -2.54424 -0.336342 2.71234
lowerneck 2.2623 -21.6458 -13.0043
upperneck -5.20472 -30.1595 33.6233
head 5.69515 -15.2749 9.46364
rclavicle 2.56432e-014 -3.22031e-014
rhumerus 0.487357 -53.1578 -28.5892
rradius 25.173
rwrist -22.7143
rhand -19.1229 12.9414
rfingers 7.12502
rthumb 7.18655 -16.9166
lclavicle 2.56432e-014 -3.22031e-014
lhumerus -43.6783 20.6721 32.0414
lradius 77.7687
lwrist 17.8701
lhand -42.7216 23.9965
lfingers 7.12502
lthumb -15.5903 53.3882
rfemur -23.2954 11.4852 2.95982
rtibia 45.5168
rfoot -16.5474 -10.9839
rtoes -30.8311
lfemur -46.0298 0.0218957 -8.38707
ltibia 89.8729
lfoot -25.8109 10.609
ltoes -8.92677
245
root 10.6999 15.6117 -13.1033 -26.8855 66.8379 -27.0403
lowerback 22.034 -1.68974 1.47718
upperback 8.98611 -1.22369 3.17415
thorax -2.45971 -0.420035 2.83658
lowerneck 2.50231 -21.5437 -13.1219
upperneck -4.50287 -30.1884 33.3822
head 5.84088 -15.2548 9.41842
rclavicle -3.55825e-014 -4.37326e-014
rhumerus 1.07907 -52.9287 -29.244
rradius 25.4927
rwrist -24.046
rhand -19.0072 12.5371
rfingers 7.12502
rthumb 7.29821 -17.3171
lclavicle -3.55825e-014 -4.37326e-014
lhumerus -43.0455 20.3869 34.3452
lradius 77.1696
lwrist 16.5525
lhand -39.7402 22.6108
lfingers 7.12502
lthumb -12.7173 52.2036
rfemur -22.5414 11.6987 3.18737
rtibia 44.6369
rfoot -16.0384 -11.2537
rtoes -30.7428
lfemur -46.0449 0.26428 -9.16127
ltibia 89.6642
lfoot -25.8458 10.1851
ltoes -11.1931
246
root 10.7263 15.6674 -13.1055 -27.6938 66.4283 -28.024
lowerback 21.8234 -1.70934 1.70657
upperback 8.8763 -1.21332 3.285
thorax -2.47619 -0.416004 2.81846
lowerneck 2.80075 -21.4111 -13.0418
upperneck -3.8429 -30.1364 33.067
head 5.89834 -15.2066 9.36233
rclavicle 3.10104e-014 -4.6118e-014
rhumerus 1.18306 -51.7283 -29.4276
rradius 25.8806
rwrist -25.3819
rhand -21.4509 12.0098
rfingers 7.12502
rthumb 4.93901 -17.9126
lclavicle 3.10104e-014 -4.6118e-014
lhumerus -41.9968 19.8781 36.6305
lradius 76.2149
lwrist 15.8519
lhand -36.2422 20.13
lfingers 7.12502
lthumb -9.34347 49.9029
rfemur -22.0754 12.1339 3.86695
rtibia 43.6464
rfoot -15.6466 -11.3621
rtoes -29.7377
lfemur -46.3617 0.655192 -9.26814
ltibia 89.3408
lfoot -25.9717 8.93803
ltoes -10.07
247
root 10.7709 15.734 -13.113 -27.3955 66.379 -27.8242
lowerback 21.3415 -1.68863 1.39329
upperback 8.84598 -1.27872 3.27957
thorax -2.25788 -0.460729 2.99294
lowerneck 2.9692 -21.3481 -12.8786
upperneck -3.22521 -30.1479 32.6288
head 5.9406 -15.1813 9.22897
rclavicle 6.36111e-015 6.36111e-015
rhumerus 1.47162 -51.0038 -29.6246
rradius 25.8607
rwrist -26.2634
rhand -21.583 11.4047
rfingers 7.12502
rthumb 4.81148 -18.5207
lclavicle 6.36111e-015 6.36111e-015
lhumerus -40.9039 19.2955 38.9215
lradius 75.2717
lwrist 15.2326
lhand -32.9374 18.0137
lfingers 7.12502
lthumb -6.15381 47.9043
rfemur -21.4571 12.3035 3.84917
rtibia 42.6035
rfoot -15.5072 -11.1782
rtoes -28.5319
lfemur -46.4561 0.613221 -10.0635
ltibia 88.8134
lfoot -26.2324 7.62454
ltoes -8.05215
